<?xml version="1.0" encoding="utf-8"?>
<svg viewBox="0 0 1024 1024" xmlns="http://www.w3.org/2000/svg" xmlns:bx="https://boxy-svg.com">
  <defs>
    <pattern id="pattern-1" x="0" y="0" width="20" height="20" patternUnits="userSpaceOnUse" viewBox="0 0 100 100">
      <path d="M 0 0 L 50 0 L 50 100 L 0 100 Z" style="fill: black;"/>
    </pattern>
    <linearGradient id="gradient-9" gradientUnits="userSpaceOnUse" x1="249.19" y1="19.168" x2="249.19" y2="480.832" gradientTransform="matrix(1.866404, 0, 0, 1.873197, 46.911692, 43.701087)">
      <stop style="stop-color: rgb(252, 253, 255);" offset="0"/>
      <stop style="stop-color: rgb(235, 235, 235);" offset="1"/>
    </linearGradient>
  </defs>
  <path d="M 238 238 L 262 238 L 262 262 L 238 262 Z" style="fill: none;" bx:origin="0.5 0.5"/>
  <ellipse style="fill: url(#gradient-9); stroke-width: 50; stroke: rgb(200, 37, 6); fill-rule: nonzero;" cx="512" cy="512" rx="431.581" ry="432.394"/>
  <path d="M 727.167 664.41 L 727.167 449.244 C 721.19 455.968 714.745 462.131 707.834 467.734 C 657.779 506.21 617.995 537.775 588.485 562.43 C 578.959 570.461 571.208 576.718 565.232 581.201 C 559.255 585.684 551.177 590.213 540.997 594.789 C 530.818 599.365 521.245 601.653 512.281 601.653 L 511.721 601.653 C 502.755 601.653 493.182 599.365 483.003 594.789 C 472.825 590.213 464.745 585.684 458.77 581.201 C 452.793 576.718 445.041 570.461 435.516 562.43 C 406.005 537.775 366.221 506.21 316.166 467.734 C 309.255 462.131 302.81 455.968 296.835 449.244 L 296.835 664.41 C 296.835 666.838 297.721 668.939 299.495 670.713 C 301.27 672.488 303.37 673.375 305.799 673.375 L 718.201 673.375 C 720.63 673.375 722.73 672.488 724.505 670.713 C 726.279 668.939 727.167 666.838 727.167 664.41 Z M 727.167 369.957 L 727.167 363.093 L 727.026 359.45 L 726.185 355.949 L 724.646 353.427 L 722.123 351.326 L 718.201 350.626 L 305.799 350.626 C 303.37 350.626 301.27 351.513 299.495 353.287 C 297.721 355.062 296.835 357.163 296.835 359.591 C 296.835 390.969 310.562 417.492 338.018 439.158 C 374.067 467.548 411.515 497.152 450.364 527.97 C 451.484 528.903 454.754 531.658 460.169 536.235 C 465.586 540.81 469.883 544.313 473.057 546.741 C 476.232 549.169 480.388 552.111 485.524 555.566 C 490.661 559.021 495.378 561.589 499.674 563.27 C 503.969 564.951 507.984 565.792 511.721 565.792 L 512.281 565.792 C 516.016 565.792 520.031 564.951 524.328 563.27 C 528.622 561.589 533.339 559.021 538.476 555.566 C 543.612 552.111 547.768 549.169 550.943 546.741 C 554.117 544.313 558.414 540.81 563.831 536.235 C 569.247 531.658 572.516 528.903 573.636 527.97 C 612.487 497.152 649.935 467.548 685.982 439.158 C 696.068 431.126 705.454 420.34 714.138 406.799 C 722.823 393.257 727.167 380.977 727.167 369.957 Z M 763.028 359.591 L 763.028 664.41 C 763.028 676.737 758.638 687.29 749.859 696.068 C 741.081 704.847 730.529 709.236 718.201 709.236 L 305.799 709.236 C 293.473 709.236 282.919 704.847 274.141 696.068 C 265.362 687.29 260.973 676.737 260.973 664.41 L 260.973 359.591 C 260.973 347.264 265.362 336.711 274.141 327.932 C 282.919 319.154 293.473 314.764 305.799 314.764 L 718.201 314.764 C 730.529 314.764 741.081 319.154 749.859 327.932 C 758.638 336.711 763.028 347.264 763.028 359.591 Z" style="fill: rgb(200, 37, 6);" bx:origin="0.5 0.5"/>
</svg>